<svg xmlns="http://www.w3.org/2000/svg" xmlns:xlink="http://www.w3.org/1999/xlink" width="824" zoomAndPan="magnify" viewBox="0 0 618 568.499983" height="758" preserveAspectRatio="xMidYMid meet" version="1.0"><defs><clipPath id="57a4221e60"><path d="M 7 8 L 611 8 L 611 561 L 7 561 Z M 7 8 " clip-rule="nonzero"/></clipPath><clipPath id="8e10f1e855"><path d="M 604.121094 0 L 617.511719 553.601562 L 13.722656 568.210938 L 0.328125 14.609375 Z M 604.121094 0 " clip-rule="nonzero"/></clipPath><clipPath id="e5586a727a"><path d="M 604.121094 0 L 617.511719 553.601562 L 13.722656 568.210938 L 0.328125 14.609375 Z M 604.121094 0 " clip-rule="nonzero"/></clipPath><clipPath id="4a386f1c7a"><path d="M 110 137 L 483 137 L 483 463.890625 L 110 463.890625 Z M 110 137 " clip-rule="nonzero"/></clipPath></defs><g clip-path="url(#57a4221e60)"><g clip-path="url(#8e10f1e855)"><g clip-path="url(#e5586a727a)"><path fill="#f5f2ee" d="M 452.96875 54.132812 C 606.75 139.800781 659.355469 291.683594 558.519531 421.933594 C 427.851562 590.710938 293.722656 582.96875 153.652344 515.617188 C 4.1875 443.75 -23.765625 301.910156 39.695312 149.742188 C 107.726562 -13.382812 317.195312 -21.507812 452.96875 54.132812 Z M 452.96875 54.132812 " fill-opacity="1" fill-rule="nonzero"/></g></g></g><path fill="#f5f2ee" d="M 450.839844 167.042969 C 394.367188 104.21875 176.3125 162.742188 133.109375 210.800781 C 89.910156 258.867188 122.789062 383.097656 159.746094 398.515625 C 171.878906 403.578125 186.292969 407.621094 202.082031 410.679688 C 199.195312 426.636719 191.421875 447.027344 171.371094 461.289062 C 228.871094 451.976562 258.75 429.003906 270.363281 417.746094 C 330.285156 419.378906 392.246094 410.328125 422.28125 391.585938 C 473.203125 359.820312 507.308594 229.871094 450.839844 167.042969 " fill-opacity="1" fill-rule="nonzero"/><g clip-path="url(#4a386f1c7a)"><path fill="#231f20" d="M 450.839844 167.042969 L 452.582031 165.480469 C 443.382812 155.253906 430.246094 148.246094 414.597656 143.769531 C 398.9375 139.292969 380.714844 137.335938 361.164062 137.332031 C 317.964844 137.335938 268.21875 146.890625 225.433594 160.601562 C 204.039062 167.460938 184.394531 175.351562 168.167969 183.644531 C 151.941406 191.953125 139.148438 200.605469 131.371094 209.234375 C 123.769531 217.691406 118.503906 228.316406 115.125 240.15625 C 111.75 252 110.257812 265.066406 110.253906 278.492188 C 110.261719 304.785156 115.980469 332.46875 124.8125 355 C 129.238281 366.265625 134.4375 376.238281 140.164062 384.128906 C 145.890625 392.011719 152.121094 397.855469 158.84375 400.675781 C 171.175781 405.816406 185.730469 409.894531 201.632812 412.980469 L 202.082031 410.679688 L 199.773438 410.265625 C 198.367188 418.054688 195.765625 426.902344 191.101562 435.503906 C 186.433594 444.109375 179.71875 452.476562 170.011719 459.382812 C 169.125 460.015625 168.789062 461.171875 169.203125 462.179688 C 169.617188 463.1875 170.671875 463.777344 171.746094 463.605469 C 229.726562 454.21875 260.089844 430.980469 271.988281 419.421875 L 270.363281 417.746094 L 270.292969 420.085938 C 274.914062 420.210938 279.542969 420.273438 284.167969 420.273438 C 312.015625 420.273438 339.726562 418.003906 364.03125 413.550781 C 388.34375 409.085938 409.21875 402.480469 423.519531 393.570312 C 431.910156 388.332031 439.738281 380.628906 446.800781 371.152344 C 457.390625 356.933594 466.265625 338.699219 472.519531 318.617188 C 478.773438 298.535156 482.402344 276.601562 482.402344 255 C 482.402344 238.34375 480.246094 221.878906 475.445312 206.609375 C 470.640625 191.34375 463.183594 177.273438 452.582031 165.480469 L 450.839844 167.042969 L 449.097656 168.613281 C 459.183594 179.835938 466.339844 193.285156 470.972656 208.019531 C 475.609375 222.746094 477.71875 238.746094 477.71875 255 C 477.722656 283.109375 471.402344 311.949219 461.117188 336.167969 C 455.972656 348.277344 449.839844 359.230469 443.046875 368.355469 C 436.246094 377.484375 428.785156 384.769531 421.042969 389.597656 C 407.605469 397.996094 387.144531 404.558594 363.191406 408.941406 C 339.226562 413.335938 311.757812 415.589844 284.167969 415.589844 C 279.585938 415.589844 274.996094 415.527344 270.421875 415.402344 C 269.789062 415.382812 269.1875 415.621094 268.726562 416.0625 C 257.410156 427.027344 228.019531 449.734375 170.996094 458.980469 L 171.371094 461.289062 L 172.730469 463.199219 C 183.066406 455.847656 190.269531 446.878906 195.222656 437.734375 C 200.175781 428.589844 202.910156 419.269531 204.386719 411.101562 C 204.609375 409.839844 203.78125 408.628906 202.527344 408.382812 C 186.855469 405.34375 172.578125 401.332031 160.648438 396.351562 C 155.136719 394.070312 149.355469 388.851562 143.949219 381.378906 C 135.824219 370.1875 128.527344 354.058594 123.3125 335.941406 C 118.09375 317.820312 114.9375 297.707031 114.941406 278.492188 C 114.9375 265.414062 116.402344 252.757812 119.632812 241.441406 C 122.859375 230.125 127.847656 220.160156 134.851562 212.371094 C 141.941406 204.460938 154.371094 195.953125 170.300781 187.816406 C 194.203125 175.597656 225.984375 164.121094 259.742188 155.730469 C 293.507812 147.332031 329.277344 142.015625 361.164062 142.015625 C 380.40625 142.015625 398.222656 143.957031 413.304688 148.273438 C 428.398438 152.582031 440.699219 159.261719 449.097656 168.613281 L 450.839844 167.042969 " fill-opacity="1" fill-rule="nonzero"/></g></svg>